{"title":"George Michael - Live In London [2009] BDrip 720p [MP4-AAC] (oan","uid":9825546,"size":6704005175,"categoryP":"video","categoryS":"music_videos","magnet":"?xt=urn:btih:a58d70ab8fc3caf387bca9d979340b17d52687b4&amp;dn=George+Michael+-+Live+In+London+%5B2009%5D+BDrip+720p+%5BMP4-AAC%5D+%28oan&amp;tr=udp%3A%2F%2Ftracker.openbittorrent.com%3A80&amp;tr=udp%3A%2F%2Fopen.demonii.com%3A1337&amp;tr=udp%3A%2F%2Ftracker.coppersurfer.tk%3A6969&amp;tr=udp%3A%2F%2Fexodus.desync.com%3A6969","seeders":0,"leechers":1,"uploader":"oneanight","files":-1,"time":1395769664,"description":"Piece Size: 256 kB\n\n\n\nGeorge Michael - Live In London [2009] BDrip 720p [MP4-AAC] (oan)\n &lt;a href=&quot;\nhttp://image.geotorrents.com/images/49932318691267258752.png&quot; rel=&quot;nofollow&quot; target=&quot;_NEW&quot;&gt;\nhttp://image.geotorrents.com/images/49932318691267258752.png&lt;/a&gt;\n &lt;a href=&quot;\nhttp://en.wikipedia.org/wiki/George_Michael&quot; rel=&quot;nofollow&quot; target=&quot;_NEW&quot;&gt;\nhttp://en.wikipedia.org/wiki/George_Michael&lt;/a&gt;\n\nBackground information\n\nIn 2006, George Michael announced his first tour in 15 years, 25 Live.\nThis DVD was recorded and filmed on 24 and 25 August 2008 when\nGeorge Michael declared two special performances entitled &quot;The Final\nTwo&quot; which took place in Earls Court, London. Moreover, another\n&quot;final&quot; concerts were announced in Copenhagen and Abu Dhabi. Those\nconcerts were the last extensive touring that was performed by\nGeorge Michael. The concert set list is a bit different from earlier\nin the tour. The DVD was recorded in the latter part of the tour,\nwhich had a very different set list. Earlier in the tour, the set\nlist was vastly different. Since most artists record the last\n(or last couple of) show(s) on a tour, the set list can change over\nthe course of the tour. The DVD reflects the final set list later\nused in the &quot;Finals&quot; concerts in Abu Dhabi, Australia, etc. The DVD\nis a mesh of the last two shows at Earl's Court. The viewer can see\na few of the differences between the two nights [example: the Congo\nplayer changes between two different men during &quot;Too Funky&quot;].\nThe viewer can also see different places George is standing from shot\nto shot [as in the extended part of &quot;Fastlove&quot;, once on the main stage,\nthen a second later at the end of the catwalk stage extension].\n\nSET LIST\n\n01 - &quot;Waiting (Reprise)&quot; (Michael)\n02 - &quot;Fastlove&quot; (Michael/Rushen/Douglas)\n03 - &quot;I'm Your Man&quot; (Michael)\n04 - &quot;Flawless (Go to the City)&quot; (Michael/Alexander/Wooden/Turnier/Matthew/Stumm)\n05 - &quot;Father Figure&quot; (Michael)\n06 - &quot;You Have Been Loved&quot; (Michael/Austin)\n07 - &quot;An Easier Affair&quot; (Michael/Cushnan/Ambrose/Flynn)\n08 - &quot;Everything She Wants&quot; (Michael)\n09 - &quot;One More Try&quot; (Michael)\n10 - &quot;A Different Corner&quot; (Michael)\n11 - &quot;Too Funky&quot; (Michael)\n12 - &quot;Shoot the Dog&quot; (Michael/Oakey/Burden)\n13 - &quot;John and Elvis Are Dead&quot; (Michael/Austin)\n14 - &quot;Faith&quot; (Michael)\n15 - &quot;Spinning the Wheel&quot; (Michael/Douglas)\n16 - &quot;Feeling Good&quot; (Bricusse/Newley)\n17 - &quot;Roxanne&quot; (Sting)\n18 - &quot;My Mother Had a Brother&quot; (Michael)\n19 - &quot;Amazing&quot; (Michael/Douglas)\n20 - &quot;Fantasy&quot; (Michael)\n21 - &quot;Outside&quot; (Michael)\n22 - &quot;Careless Whisper&quot; (Michael/Ridgeley)\n23 - &quot;Freedom! '90&quot; [b](Michael)\n\nBonus features:\n\nDocumentarie\n\n&quot;I'd Know Him a Mile Off!&quot;\nProduced by Lisa Johnson, Filmed and directed by David Austin. Made by G K Panayioutou.\n\nBonus tracks:\n\n&quot;Precious Box&quot;\n\n&quot;Jesus to a Child&quot;\n\n&quot;The First Time Ever I Saw Your Face&quot;\n\n\nVideo #1\nID    : 1\nFormat    : AVC\nFormat/Info   : Advanced Video Codec\nFormat profile    : &lt;a class=&quot;__cf_email__&quot; href=&quot;/cdn-cgi/l/email-protection&quot; data-cfemail=&quot;aae7cbc3c4eae699849b&quot;&gt;[email&amp;#160;protected]&lt;/a&gt;&lt;script cf-hash='f9e31' type=&quot;text/javascript&quot;&gt;\n/* &lt;![CDATA[ */!function(){try{var t=&quot;currentScript&quot;in document?document.currentScript:function(){for(var t=document.getElementsByTagName(&quot;script&quot;),e=t.length;e--;)if(t[e].getAttribute(&quot;cf-hash&quot;))return t[e]}();if(t&amp;&amp;t.previousSibling){var e,r,n,i,c=t.previousSibling,a=c.getAttribute(&quot;data-cfemail&quot;);if(a){for(e=&quot;&quot;,r=parseInt(a.substr(0,2),16),n=2;a.length-n;n+=2)i=parseInt(a.substr(n,2),16)^r,e+=String.fromCharCode(i);e=document.createTextNode(e),c.parentNode.replaceChild(e,c)}}}catch(u){}}();/* ]]&gt; */&lt;/script&gt;\nFormat settings, CABAC    : Yes\nFormat settings, ReFrames : 1 frame\nCodec ID : avc1\nCodec ID/Info : Advanced Video Coding\nDuration : 2h 13mn\nBit rate : 4 177 Kbps\nWidth : 1 280 pixels\nHeight    : 720 pixels\nDisplay aspect ratio : 16:9\nFrame rate mode   : Constant\nFrame rate    : 23.976 fps\n\n\nAudio #1\nID    : 2\nFormat    : AAC\nFormat/Info   : Advanced Audio Codec\nFormat profile    : LC\nCodec ID : 40\nDuration : 2h 13mn\nBit rate mode : Variable\nBit rate : 496 Kbps\nMaximum bit rate : 615 Kbps\nChannel(s)    : 6 channels\nChannel positions : Front: L C R, Side: L R, LFE\nSampling rate : 48.0 KHz\nCompression mode : Lossy\nStream size   : 473 MiB (11%)\nLanguage : English\n\nVideo #2\nID    : 1\nFormat    : AVC\nFormat/Info   : Advanced Video Codec\nFormat profile    : &lt;a class=&quot;__cf_email__&quot; href=&quot;/cdn-cgi/l/email-protection&quot; data-cfemail=&quot;733e121a1d333f405d42&quot;&gt;[email&amp;#160;protected]&lt;/a&gt;&lt;script cf-hash='f9e31' type=&quot;text/javascript&quot;&gt;\n/* &lt;![CDATA[ */!function(){try{var t=&quot;currentScript&quot;in document?document.currentScript:function(){for(var t=document.getElementsByTagName(&quot;script&quot;),e=t.length;e--;)if(t[e].getAttribute(&quot;cf-hash&quot;))return t[e]}();if(t&amp;&amp;t.previousSibling){var e,r,n,i,c=t.previousSibling,a=c.getAttribute(&quot;data-cfemail&quot;);if(a){for(e=&quot;&quot;,r=parseInt(a.substr(0,2),16),n=2;a.length-n;n+=2)i=parseInt(a.substr(n,2),16)^r,e+=String.fromCharCode(i);e=document.createTextNode(e),c.parentNode.replaceChild(e,c)}}}catch(u){}}();/* ]]&gt; */&lt;/script&gt;\nFormat settings, CABAC    : Yes\nFormat settings, ReFrames : 1 frame\nFormat settings, GOP : M=1, N=24\nCodec ID : avc1\nCodec ID/Info : Advanced Video Coding\nDuration : 42mn 8s\nBit rate : 4 177 Kbps\nWidth : 1 280 pixels\nHeight    : 720 pixels\nDisplay aspect ratio : 16:9\nFrame rate mode   : Constant\nFrame rate    : 23.976 fps\n\nAudio #2\nID    : 2\nFormat    : AAC\nFormat/Info   : Advanced Audio Codec\nFormat profile    : LC\nCodec ID : 40\nDuration : 42mn 8s\nBit rate mode : Variable\nBit rate : 128 Kbps\nMaximum bit rate : 229 Kbps\nChannel(s)    : 2 channels\nChannel positions : Front: L R\nSampling rate : 48.0 KHz\nCompression mode : Lossy\nStream size   : 38.5 MiB (3%)\nLanguage : English\n\nVideo #3\nID    : 1\nFormat    : AVC\nFormat/Info   : Advanced Video Codec\nFormat profile    : &lt;a class=&quot;__cf_email__&quot; href=&quot;/cdn-cgi/l/email-protection&quot; data-cfemail=&quot;afe2cec6c1efe39c819e&quot;&gt;[email&amp;#160;protected]&lt;/a&gt;&lt;script cf-hash='f9e31' type=&quot;text/javascript&quot;&gt;\n/* &lt;![CDATA[ */!function(){try{var t=&quot;currentScript&quot;in document?document.currentScript:function(){for(var t=document.getElementsByTagName(&quot;script&quot;),e=t.length;e--;)if(t[e].getAttribute(&quot;cf-hash&quot;))return t[e]}();if(t&amp;&amp;t.previousSibling){var e,r,n,i,c=t.previousSibling,a=c.getAttribute(&quot;data-cfemail&quot;);if(a){for(e=&quot;&quot;,r=parseInt(a.substr(0,2),16),n=2;a.length-n;n+=2)i=parseInt(a.substr(n,2),16)^r,e+=String.fromCharCode(i);e=document.createTextNode(e),c.parentNode.replaceChild(e,c)}}}catch(u){}}();/* ]]&gt; */&lt;/script&gt;\nFormat settings, CABAC    : Yes\nFormat settings, ReFrames : 1 frame\nCodec ID : avc1\nCodec ID/Info : Advanced Video Coding\nDuration : 18mn 56s\nBit rate : 4 178 Kbps\nWidth : 1 280 pixels\nHeight    : 720 pixels\nDisplay aspect ratio : 16:9\nFrame rate mode   : Constant\nFrame rate    : 23.976 fps\n\nAudio #3\nID    : 2\nFormat    : AAC\nFormat/Info   : Advanced Audio Codec\nFormat profile    : LC\nCodec ID : 40\nDuration : 18mn 58s\nBit rate mode : Variable\nBit rate : 445 Kbps\nMaximum bit rate : 575 Kbps\nChannel(s)    : 6 channels\nChannel positions : Front: L C R, Side: L R, LFE\nSampling rate : 48.0 KHz\nCompression mode : Lossy\nStream size   : 60.5 MiB (10%)\nLanguage : English","torrent":{"xt":"urn:btih:a58d70ab8fc3caf387bca9d979340b17d52687b4","amp;dn":"George+Michael+-+Live+In+London+%5B2009%5D+BDrip+720p+%5BMP4-AAC%5D+%28oan","amp;tr":["udp%3A%2F%2Ftracker.openbittorrent.com%3A80","udp%3A%2F%2Fopen.demonii.com%3A1337","udp%3A%2F%2Ftracker.coppersurfer.tk%3A6969","udp%3A%2F%2Fexodus.desync.com%3A6969"],"infoHash":"a58d70ab8fc3caf387bca9d979340b17d52687b4","infoHashBuffer":{"type":"Buffer","data":[165,141,112,171,143,195,202,243,135,188,169,217,121,52,11,23,213,38,135,180]},"announce":[],"urlList":[]}}